<svg xmlns="http://www.w3.org/2000/svg" version="1.1" xmlns:xlink="http://www.w3.org/1999/xlink" xmlns:svgjs="http://svgjs.dev/svgjs" width="1500" height="935" viewBox="0 0 1500 935"><g transform="matrix(1,0,0,1,-0.9090909090909918,0.3785425101214628)"><svg viewBox="0 0 396 247" data-background-color="#ffffff" preserveAspectRatio="xMidYMid meet" height="935" width="1500" xmlns="http://www.w3.org/2000/svg" xmlns:xlink="http://www.w3.org/1999/xlink"><g id="tight-bounds" transform="matrix(1,0,0,1,0.2400000000000091,-0.09999999999999432)"><svg viewBox="0 0 395.52 247.2" height="247.2" width="395.52"><g><svg></svg></g><g><svg viewBox="0 0 395.52 247.2" height="247.2" width="395.52"><g transform="matrix(1,0,0,1,136.70433107622748,47.215199999999996)"><svg viewBox="0 0 122.11133784754503 152.7696" height="152.7696" width="122.11133784754503"><g><svg viewBox="0 0 122.11133784754503 152.7696" height="152.7696" width="122.11133784754503"><g><svg viewBox="0 0 225.00452595988918 281.4959858354623" height="152.7696" width="122.11133784754503"><g><svg viewBox="0 0 225.00452595988918 281.4959858354623" height="281.4959858354623" width="225.00452595988918"><g id="textblocktransform"><svg viewBox="0 0 225.00452595988918 281.4959858354623" height="281.4959858354623" width="225.00452595988918" id="textblock"><g><svg viewBox="0 0 225.00452595988918 151.825483872" height="151.825483872" width="225.00452595988918"><g transform="matrix(1,0,0,1,0,0)"><svg width="225.00452595988918" viewBox="3.4 -35.5 53.5 36.1" height="151.825483872" data-palette-color="#556970"><path d="M22.7 0L14.6-15.45 10.55-9.95 10.55 0 3.4 0 3.4-34.9 10.55-34.9 10.55-23.6 10.25-18.05 11.05-18.05 14.5-23.6 22.1-34.9 30.2-34.9 19.65-20.35 31.1 0 22.7 0ZM44.6 0.6L44.6 0.6Q36.75 0.6 32.3-4.9L32.3-4.9 36.9-9.5Q39.9-5.65 44.75-5.65L44.75-5.65Q49.75-5.65 49.75-10.05L49.75-10.05Q49.75-11.85 48.85-12.85 47.95-13.85 46.05-14.25L46.05-14.25 42.85-14.85Q38-15.75 35.72-18.23 33.45-20.7 33.45-25.1L33.45-25.1Q33.45-30.2 36.45-32.85 39.45-35.5 45.25-35.5L45.25-35.5Q52.65-35.5 56.5-30.7L56.5-30.7 51.9-26.1Q50.6-27.7 48.97-28.48 47.35-29.25 45.15-29.25L45.15-29.25Q42.75-29.25 41.67-28.35 40.6-27.45 40.6-25.45L40.6-25.45Q40.6-23.7 41.42-22.8 42.25-21.9 44.1-21.5L44.1-21.5 47.3-20.85Q49.85-20.3 51.67-19.53 53.5-18.75 54.67-17.55 55.85-16.35 56.37-14.7 56.9-13.05 56.9-10.85L56.9-10.85Q56.9-5.25 53.75-2.33 50.6 0.6 44.6 0.6Z" opacity="1" transform="matrix(1,0,0,1,0,0)" fill="#556970" class="wordmark-text-0" data-fill-palette-color="primary" id="text-0"></path></svg></g></svg></g><g transform="matrix(1,0,0,1,0,187.66783680256628)"><svg viewBox="0 0 225.00452595988918 93.82814903289601" height="93.82814903289601" width="225.00452595988918"><g transform="matrix(1,0,0,1,0,0)"><svg width="225.00452595988918" viewBox="-0.85 -32.95 80.92999999999999 33.75" height="93.82814903289601" data-palette-color="#556970"><path d="M5.8-25.4Q5.9-26.3 5.9-26.5L5.9-26.5Q5.9-27.35 5.55-27.65 5.2-27.95 4.4-27.95L4.4-27.95 3.15-27.9 2.8-28.6 3.7-32.4 11.6-32.35Q13.8-32.35 16.45-32.45 19.1-32.55 20.15-32.6L20.15-32.6 19.25-28.1Q17.35-27.6 16.73-27.08 16.1-26.55 16-25.3L16-25.3 13.5-7.8Q13.35-6.6 13.35-5.95L13.35-5.95Q13.35-5.05 13.63-4.7 13.9-4.35 14.6-4.35L14.6-4.35Q15.25-4.35 15.65-4.4 16.05-4.45 16.15-4.5L16.15-4.5 16.5-4 15.55 0.2Q14.55 0.15 12.03 0.08 9.5 0 7.35 0L7.35 0Q5.4 0 2.7 0.1 0 0.2-0.85 0.25L-0.85 0.25 0.05-4Q2-4.4 2.73-5.2 3.45-6 3.65-8.1L3.65-8.1 5.8-25.4ZM15.35-17.35L21-23.6Q21.75-24.4 22.23-25.23 22.7-26.05 22.7-26.6L22.7-26.6Q22.7-27.25 22.3-27.55 21.9-27.85 20.95-27.9L20.95-27.9 20.7-28.4 21.65-32.5Q22.45-32.5 24.53-32.43 26.6-32.35 28.65-32.35L28.65-32.35Q30.5-32.35 32.73-32.45 34.95-32.55 35.8-32.6L35.8-32.6 36.15-31.85 35.25-28.1Q33.1-26.9 31.48-25.45 29.85-24 28.05-21.75L28.05-21.75 25.05-17.8 28.3-8.7Q29.1-6.5 30.03-5.48 30.95-4.45 32.4-4.2L32.4-4.2 32.85-3.45 31.85 0.25Q30.8 0.35 27.88 0.58 24.95 0.8 24.15 0.8L24.15 0.8Q22.25 0.8 21.23-0.08 20.2-0.95 19.35-3.25L19.35-3.25 14.9-15.85 15.35-17.35ZM61.68 0.6Q59.13 0.6 56.93 0.13 54.73-0.35 53.26-0.93 51.78-1.5 51.78-1.55L51.78-1.55 51.28-2.45Q51.53-3.25 52.28-5.95 53.03-8.65 53.38-10.7L53.38-10.7 59.73-11.15Q59.68-10.85 59.68-10.2L59.68-10.2Q59.68-8.2 60.61-7.13 61.53-6.05 63.28-6.05L63.28-6.05Q64.73-6.05 65.63-6.68 66.53-7.3 66.53-8.3L66.53-8.3Q66.53-9.45 65.36-10.25 64.18-11.05 61.48-12.3L61.48-12.3Q59.18-13.4 57.61-14.45 56.03-15.5 54.96-17.2 53.88-18.9 53.88-21.25L53.88-21.25Q53.88-24.75 55.88-27.4 57.88-30.05 61.51-31.5 65.13-32.95 69.93-32.95L69.93-32.95Q72.33-32.95 74.46-32.65 76.58-32.35 77.91-32 79.23-31.65 79.58-31.55L79.58-31.55 80.08-30.45Q79.98-30.1 79.61-28.95 79.23-27.8 78.68-25.78 78.13-23.75 77.73-21.75L77.73-21.75 71.83-21.35 71.28-21.75Q71.28-21.95 71.36-22.4 71.43-22.85 71.43-23.15L71.43-23.15Q71.43-24.6 70.63-25.33 69.83-26.05 68.33-26.05L68.33-26.05Q66.93-26.05 66.06-25.35 65.18-24.65 65.18-23.6L65.18-23.6Q65.18-22.65 66.03-21.93 66.88-21.2 68.58-20.35L68.58-20.35 69.78-19.8Q72.28-18.65 73.91-17.65 75.53-16.65 76.71-14.95 77.88-13.25 77.88-10.8L77.88-10.8Q77.88-7.3 75.93-4.73 73.98-2.15 70.33-0.78 66.68 0.6 61.68 0.6L61.68 0.6Z" opacity="1" transform="matrix(1,0,0,1,0,0)" fill="#556970" class="slogan-text-1" data-fill-palette-color="secondary" id="text-1"></path></svg></g></svg></g></svg></g></svg></g></svg></g></svg></g></svg></g><g><path d="M184.656 0c34.781 0 66.207 14.367 88.667 37.489l-5.257 0c-21.579-20.906-50.992-33.774-83.41-33.774-32.418 0-61.832 12.868-83.411 33.774l-5.257 0c22.46-23.123 53.886-37.489 88.668-37.489zM184.656 247.2c-34.781 0-66.207-14.367-88.668-37.489h5.257c21.579 20.906 50.992 33.774 83.411 33.774 32.418 0 61.832-12.868 83.41-33.774h5.257c-22.46 23.123-53.886 37.489-88.667 37.489z" fill="#556970" stroke="transparent" data-fill-palette-color="tertiary"></path></g></svg></g><defs></defs></svg><rect width="395.52" height="247.2" fill="none" stroke="none" visibility="hidden"></rect></g></svg></g></svg>